<svg xmlns="http://www.w3.org/2000/svg" viewBox="0 0 1130.22 1086"><defs><style>.cls-1,.cls-2,.cls-7,.cls-8{fill:#fff;}.cls-1,.cls-2,.cls-3,.cls-4,.cls-5{stroke:#b3b3b3;}.cls-1,.cls-10,.cls-2,.cls-3,.cls-4,.cls-5,.cls-6,.cls-8,.cls-9{stroke-miterlimit:10;}.cls-1,.cls-3{stroke-width:6px;}.cls-2{stroke-width:5px;}.cls-10,.cls-3,.cls-4,.cls-5,.cls-6,.cls-9{fill:none;}.cls-10,.cls-4,.cls-6,.cls-8{stroke-width:4px;}.cls-5,.cls-9{stroke-width:3px;}.cls-6{stroke:#ccc;}.cls-10,.cls-8{stroke:#000;}.cls-9{stroke:#fc3;}</style></defs><title>illustration-home</title><g id="Layer_2" data-name="Layer 2"><g id="Layer_2-2" data-name="Layer 2"><path class="cls-1" d="M108.53,976.5l3-605c-1-18,0-25,17-25l862-1c23,1,23,1,23,29l5,602Z"/><polygon class="cls-2" points="135.53 939.5 135.53 371.5 989.53 370.5 992.53 939.5 135.53 939.5"/><polyline class="cls-3" points="109.53 980.5 8.53 1061.5 1121.53 1062.5 1019.53 982.5"/><path class="cls-4" d="M1116.53,1062.5v12H8.53s0-12.47,0-13"/><path class="cls-5" d="M9.53,1074.5c2.74,2.8,5.85,6.87,7,8l1092,2,6-10"/><path class="cls-4" d="M178.53,985.5l-30,34c10,2,815,2,830,5l-29-38C933.53,987.5,193.53,986.5,178.53,985.5Z"/><path class="cls-6" d="M389.53,1028.5l-12,27c14,0,361,2,372,2l-12-29C728.53,1028.5,401.53,1031.5,389.53,1028.5Z"/><rect class="cls-7" x="493.03" y="295" width="127" height="761"/><rect class="cls-7" x="466.03" y="321" width="50" height="66"/><rect class="cls-7" x="658.03" y="341" width="121" height="54"/><rect class="cls-7" x="425.03" y="889" width="35" height="116"/><rect class="cls-7" x="239.53" y="918.5" width="154" height="28"/></g><g id="Layer_3" data-name="Layer 3"><path class="cls-8" d="M361.62,901c-55.46-3.74-103.78-5.12-143.22-5.47-48.43-.43-79.36,8.21-98.52,21C117,918.4,82.58,948,97.07,965.74c16.42,20.07,178.8,29.19,210.73,19.16,13.55-4.26-1.11-30.43-4.56-31-31.93-5.47-75.72-21.89-123.15-27.37"/><path class="cls-8" d="M389,969.39c-24.63-.31-52-.61-76.62-.91"/><path class="cls-8" d="M482.34,168.64c-6.5,8.92-22.28,38-22.28,62.72,0,12.43,3.3,35.48,14,59.41,13.48,30.07,41.82,12.8,78.4,42.92,22.09,18.19,22.52,30.13,44.56,39.61,5.85,2.51,24.88,9.87,47.87,5.78,26.46-4.72,30.91-19.74,62.72-35.49,37.87-18.75,46.16-4.67,61.06-19,31.26-30,33.92-74.48,27.24-127.91-.83-6.61,12.3-12.88,19.8-28.89,5-10.65,5.55-16.49,8.25-25.58,8.48-28.48,24.76-45.39,40.44-75.1,7-13.24,3.3-19.8,3.3-24.75,0-2.6-9.08-7.43-19.8-6.61-23.41,1.8-80.88,48.69-100.68,55.3-4.77,1.58-30.16-7.88-76.75-15.68C629.43,68.5,590.58,73,568.17,77"/><path class="cls-8" d="M582.2,93.54c-8-13.66-80.05-81.7-117.19-90.78-8.37-2-23.64-.29-29.7,9.08-9.08,14,9.9,71,21.45,102.33,1,2.63-1.2,9.24.83,17.33,3.54,14.17,19.8,28.06,24.75,37.14"/><path class="cls-9" d="M553.31,187.62c-.21,4.34,0,17.22,4.13,25.58,1.25,2.53,10.55,21.36,24.76,19.81,11.8-1.29,20.28-21.42,20.63-22.28"/><path d="M575.6,191.75c-1.65,11.55-.34,22.92,1.65,23.93,2.22,1.13,3.94-1.56,5.77-5,2-3.65-1.65-11.56-.82-15.68"/><path class="cls-9" d="M703.51,220.63c-4.13,23.93,9.45,27.62,19,28.06,11,.5,18.87-8.84,20.63-17.33,1.23-6-2.29-15.09-3.3-17.33"/><path d="M720,214.85c.07,8.8-.47,19.29,2.48,19.81,2.79.49,6.6-2.39,6.6-5.78,0-5.78-.14-13.07-.82-14.85"/><path class="cls-10" d="M628.41,336.16c.43-3.05-.22-11.05-2.47-15.68-3.39-7-9.27-7.57-9.91-12.38-.75-5.67,9.08-13.2,12.38-13.2,8,0,14,14.86,17.33,14"/><path class="cls-8" d="M471.62,294.9c-12.25,31-12.26,54.36-9.91,70.15,2.44,16.34,7.24,23.42,4.13,38-3.57,16.72-12.93,21.45-19.81,42.91-4.34,13.57-2.56,17.78-4.95,29.71-7.76,38.75-36.45,43.63-51.16,82.52-4.75,12.54-5.46,23.6-15.68,47.87C359,642.21,329.39,676.6,344.53,727.5c11,37-15,201,84,283"/><path class="cls-8" d="M474.09,415.39c.45,14.94.73,38.32-.82,66.84-5,91.5-22.35,116.37-28.06,184.86-1.08,13,.4,1.8,10.73,170,5.31,86.6-10.73,122.13-14.86,149.36-4.47,29.51-41.27,38.63-36.31,55.3,4.85,16.3,33.59,21.33,43.74,23.1,4.65.82,39.2,6.46,61.89-9.08,23.84-16.31,21.93-47.33,24.76-136.16,2.15-67.44,6.84-134.78,9.9-202.18,1.31-28.69,2.5-52.23,3.3-67.67"/><path class="cls-8" d="M721.66,471.5C698.49,564.59,673.42,629.15,654,672c-14.54,32.1-38.07,78.9-56.11,143.59-3.22,11.56-6.59,24.81-13.21,44.56a628,628,0,0,1-42.91,99"/><path class="cls-10" d="M659.91,334.51c-.35-2.78.18-10.06,2-14.27,2.77-6.33,7.59-6.89,8.11-11.26.62-5.17-7.44-12-10.14-12-6.53,0-11.5,13.52-14.21,12.77"/><path class="cls-8" d="M773.53,324.5c4.47,8,18.45,29.45,21.4,45.26,5,26.78-1.9,42.82-3.29,68.3a102.83,102.83,0,0,0,.74,21.31c3.84,25.77,8.59,44.37,10,48.64,7.61,23.76-28.81,121.49-.81,204.49,13.35,39.58-13.52,92.77-28,118-29.84,52,4.12,179.5-153.06,179.5"/><path class="cls-10" d="M614.38,246.21s-3.32-27.64-14.85-38.79c-24.76-23.93-53.64-19.8-53.64-19.8s4.07,25.63,13.2,36.31C576.38,244.14,614.38,246.21,614.38,246.21Z"/><path class="cls-10" d="M691.13,252.81s2-21.46,9.08-28.88c16.44-17.37,55.29-7.43,55.29-7.43s-8.2,28-23.93,36.31C718.15,259.91,691.13,252.81,691.13,252.81Z"/><path class="cls-8" d="M531,1051.65a63.31,63.31,0,0,0,37.14,9.9c3.77-.2,26.75-1.44,40.44-18.15,10.23-12.49,3.64-19.42,14.85-45.39,7.55-17.5,12.1-18,16.51-32.19,5.59-18.06,3-32.78,2.47-39.61-2.67-32.41,25.64-54.61,52-94.9,31.93-48.81,42.83-96.4,60.24-172.48,5.8-25.3,9.38-46.51,11.56-61.07"/></g></g></svg>